<?xml version="1.0" encoding="UTF-8"?>
<svg id="Layer_1" data-name="Layer 1" xmlns="http://www.w3.org/2000/svg" viewBox="0 0 489.8 489.8">
  <defs>
    <style>
      .cls-1 {
        fill: #231f20;
        stroke-width: 0px;
      }
    </style>
  </defs>
  <path class="cls-1" d="m384.95,277.59c-1.94-1.03-13.91-7.5-18.04-9.59-1.71-.87-3.24-2.01-4.42-3.3-1.16-1.27-3.09-1.51-4.52-.55-28.07,18.79-62.93,35.37-101.07,48.12.84-7.71,1.74-15.2,2.67-22.31,2.08-15.8,14.57-28.29,30.37-30.37,19.03-2.5,39.84-4.64,61.87-6.34,8.74-.68,17.9-1.3,27.24-1.85,1.84-.11,3.28-1.63,3.28-3.48v-6.03c0-1.85-1.44-3.37-3.28-3.48-7.32-.43-14.44-.9-21.14-1.39-24.28-1.77-47.12-4.06-67.88-6.79-15.86-2.09-28.39-14.62-30.47-30.47-1.78-13.54-3.38-28.1-4.77-43.31,13.8-1.86,27.56-3.15,40.93-3.78,19.92-.86,38.52-.08,55.29,2.32,20.82,3.05,36.75,8.29,48.67,16,.2.13.39.27.58.4l.39.27c.35.24.73.42,1.14.52,1.34.34,2.5.72,3.36,1.12.46.21.96.32,1.45.32.81,0,1.62-.29,2.26-.83.47-.41,1.1-.8,1.77-1.22.37-.24.74-.47,1.08-.7,1.82-1.24,3.8-2.31,6.07-3.28.54-.23,1.02-.6,1.38-1.07l4.71-6.11c.26-.34.57-.68.98-1.08.71-.69,1.09-1.65,1.06-2.64-.04-.99-.49-1.91-1.25-2.55-26.58-22.12-70.52-30.32-130.66-24.36-13.54,1.49-27.28,3.7-40.89,6.51-3.14-41.19-4.74-85.82-4.74-132.79,0-1.93-1.56-3.49-3.49-3.49s-3.49,1.56-3.49,3.49c0,48.45-1.7,94.36-5.03,136.56-38.39,9.46-75.25,23.85-109.6,42.81-1.61.89-2.25,2.87-1.47,4.53.59,1.26,1.84,2.01,3.16,2.01.42,0,.85-.08,1.26-.24,34.83-13.52,70.12-23.43,104.97-29.57-1.32,14.06-2.82,27.6-4.48,40.25-2.08,15.8-14.57,28.29-30.37,30.37-30.91,4.07-82.72,9.24-153.98,10.75-2.23.05-30.54.45-42.38.45-1.93,0-3.49,1.56-3.49,3.49s1.56,3.49,3.49,3.49c8.99,0,18.06.08,27.09.2-15.14,17.04-22.18,34.45-20.88,51.9,1.25,13.84,9.26,27.19,21.97,36.63,20.59,15.46,46.08,20.6,66.04,23.35,12.36,1.53,25.02,2.3,38.05,2.3,31.11,0,64.37-4.38,100.62-13.2,3.34,42.25,5.05,88.21,5.05,136.74,0,1.93,1.56,3.49,3.49,3.49s3.49-1.56,3.49-3.49c0-50.3,1.83-97.82,5.41-141.31,25.32-7.23,83.89-26.54,131.58-61.52.97-.71,1.5-1.87,1.42-3.06-.09-1.19-.78-2.26-1.84-2.83Zm-161.14,44.51c-1.96.51-9.42,2.36-11.2,2.78-1.95.46-9.37,2.11-11.14,2.49-1.93.41-9.29,1.86-11.04,2.19-1.91.35-9.19,1.61-10.92,1.89-1.88.3-9.07,1.36-10.79,1.59-1.84.25-8.92,1.1-10.62,1.29-1.81.19-8.77.85-10.44.98-1.78.14-8.6.59-10.23.68-1.74.09-8.41.34-10.01.37-1.7.04-8.21.08-9.76.06-1.68-.02-3.31-.08-4.96-.13-1.51-.04-3.04-.06-4.52-.12-1.68-.07-3.31-.2-4.97-.3-1.41-.09-2.84-.15-4.22-.26-1.72-.14-3.38-.33-5.06-.5-1.27-.13-2.57-.23-3.82-.38-1.85-.22-3.63-.49-5.43-.76-1.03-.15-2.09-.27-3.11-.44-2.79-.45-5.52-.95-8.19-1.51-23.38-5.18-38.69-14.86-44.25-28-4.82-11.39-2.26-25.28,7.6-41.27.75-1.2,1.53-2.4,2.34-3.6.25-.36.51-.73.77-1.1.58-.83,1.16-1.67,1.77-2.51.34-.46,2.18-2.89,2.77-3.65.39-.5,2.03-2.52,2.45-3.02.84.02,64.75,2.59,65.55,2.64,1.03.06,54.24,4.28,55.17,4.37.41.04,30.69,3.5,32.29,3.72,4.94.65,9.55,2.32,13.63,4.78,8.96,5.43,15.31,14.72,16.74,25.59.33,2.48,3.32,28.41,3.43,29.46-1.48.42-8.04,2.21-9.83,2.68Z"/>
  <path class="cls-1" d="m454.3,224.4c.39-1.46-.21-3-1.48-3.82l-9.92-6.39c-7.44-4.8-10.92-13.77-8.66-22.34l3.01-11.41c.39-1.46-.21-3-1.48-3.82-1.27-.82-2.92-.73-4.09.23l-9.15,7.47c-6.85,5.6-16.46,6.13-23.91,1.34l-9.93-6.4c-1.27-.82-2.92-.73-4.09.23-1.17.95-1.59,2.55-1.05,3.96l4.27,11.01c3.2,8.25.74,17.55-6.11,23.15l-9.16,7.47c-1.17.95-1.59,2.55-1.05,3.96s1.96,2.31,3.44,2.22l11.79-.66c1.96-.11,3.91.06,5.81.5,6.54,1.53,11.9,6.2,14.34,12.51l4.26,10.98c.52,1.35,1.82,2.23,3.25,2.23.06,0,.13,0,.2,0,1.51-.09,2.79-1.13,3.18-2.59l3.01-11.41c2.26-8.55,9.71-14.63,18.54-15.14l11.81-.66c1.51-.08,2.79-1.13,3.18-2.59Z"/>
  <path class="cls-1" d="m486.31,241.41c-13.21,0-26.56.12-39.65-.39-.92-.04-1.84.34-2.51,1s-1.05,1.55-1.05,2.49v.79c0,.94.38,1.83,1.05,2.49.65.64,1.53,1,2.44,1,.02,0,.05,0,.07,0,13.23-.26,26.57-.4,39.65-.4,1.93,0,3.49-1.56,3.49-3.49s-1.56-3.49-3.49-3.49Z"/>
</svg>